# xmcd CD database file
#
# Track frame offsets:
#	150
#	9698
#	24389
#	34527
#	64811
#	75588
#	93998
#	123031
#	163316
#	173312
#	182787
#	195178
#	206903
#	222510
#	244058
#
# Disc length: 3539 seconds
#
# Revision: 0
# Processed by: cddbd v1.5.1PL0 Copyright (c) Steve Scherf et al.
# Submitted via: CDex 1.51
#
DISCID=be0dd10f
DTITLE=Pequejazz 1 - El secreto de Dexterity
DYEAR=2004
DGENRE=Jazz
TTITLE0=Dexterity
TTITLE1=Africa viaja a America
TTITLE2=Nueva Orleans
TTITLE3=Louis Armstrong y la Big Band de niños
TTITLE4=Jack Sugar
TTITLE5=Nueva York, Jack Sugar es vencido por el bebop
TTITLE6=Tiempolastic
TTITLE7=El Secreto de Dexterity
TTITLE8=Percusion
TTITLE9=When the saints
TTITLE10=Blues
TTITLE11=Ain't misbehabin
TTITLE12=Marmaduke
TTITLE13=I remember you
TTITLE14=Moments Notice
EXTD=YEAR: 2004
EXTT0=
EXTT1=
EXTT2=
EXTT3=
EXTT4=
EXTT5=
EXTT6=
EXTT7=
EXTT8=
EXTT9=
EXTT10=
EXTT11=
EXTT12=
EXTT13=
EXTT14=
PLAYORDER=
